{"glyphs":{":":{"x_min":0,"x_max":227,"ha":227,"o":""},"$":{"x_min":0,"x_max":414,"ha":414,"o":"m 228 -4 q 224 -5 224 -9 l 217 -75 q 215 -85 206 -85 l 154 -85 q 150 -85 148 -82 q 145 -79 146 -75 l 155 -9 q 155 -5 152 -4 q 97 6 66 45 q 36 84 36 143 q 36 151 38 171 l 42 197 q 42 201 45 204 q 48 207 53 207 l 124 207 q 129 207 132 204 q 134 201 133 197 l 130 176 q 129 170 129 158 q 129 119 148 97 q 166 75 197 75 q 236 75 264 106 q 291 138 291 186 q 291 210 280 230 q 270 249 253 266 q 236 282 198 313 q 157 348 134 372 q 111 396 95 428 q 79 461 79 503 q 79 512 81 532 q 90 604 132 650 q 174 695 237 705 q 241 706 241 710 l 249 781 q 251 791 260 791 l 311 791 q 315 791 318 788 q 320 785 319 781 l 309 708 q 309 705 312 703 q 363 692 392 652 q 421 613 421 554 q 421 545 419 523 l 416 498 q 414 488 405 488 l 333 488 q 329 488 326 491 q 324 494 325 498 l 328 525 q 329 532 329 545 q 329 582 310 604 q 292 625 260 625 q 222 625 196 596 q 171 566 171 515 q 171 483 190 458 q 208 433 258 391 q 306 351 331 326 q 356 300 370 270 q 384 241 384 204 q 384 197 382 177 q 373 105 332 57 q 290 9 228 -4 z"},"?":{"x_min":0,"x_max":382,"ha":382,"o":"m 138 218 l 144 268 q 150 313 171 342 q 192 371 230 404 q 265 434 284 460 q 303 485 308 524 q 309 531 309 544 q 309 581 293 602 q 277 622 249 622 q 214 622 190 594 q 166 567 161 522 l 158 496 q 156 486 147 486 l 74 490 q 65 490 65 500 l 68 522 q 78 606 132 658 q 185 709 262 709 q 328 709 366 669 q 404 629 404 560 q 404 549 402 527 q 397 482 382 450 q 366 419 348 399 q 329 379 300 354 q 270 328 255 309 q 240 290 237 263 l 231 218 q 231 214 228 211 q 225 208 221 208 l 147 208 q 138 208 138 218 z m 104 55 q 104 86 124 108 q 145 129 175 129 q 200 129 215 114 q 230 99 230 75 q 230 44 209 22 q 188 1 159 1 q 134 1 119 16 q 104 31 104 55 z"},"<":{"x_min":0,"x_max":427,"ha":427,"o":"m 375 60 l 44 234 q 38 239 39 246 l 47 315 q 49 323 56 327 l 429 501 l 434 503 q 437 503 439 500 q 441 498 440 494 l 431 421 q 429 413 423 410 l 138 283 q 131 280 137 277 l 391 150 q 397 146 396 139 l 387 67 q 387 62 383 60 q 379 57 375 60 z"},"'":{"x_min":0,"x_max":133,"ha":133,"o":"m 70 496 l 84 688 q 86 698 94 698 l 170 698 q 178 698 178 688 l 144 496 q 143 486 133 486 l 78 486 q 69 486 70 496 z"},"=":{"x_min":0,"x_max":427,"ha":427,"o":""},"a":{"x_min":0,"x_max":418,"ha":418,"o":"m 326 509 l 400 509 q 409 509 409 499 l 348 10 q 348 6 345 3 q 342 0 338 0 l 264 0 q 255 0 255 10 l 260 45 q 260 48 258 48 q 257 49 255 47 q 236 19 209 6 q 182 -8 152 -8 q 97 -8 68 26 q 39 59 39 118 q 39 127 41 151 l 66 358 q 75 432 114 474 q 154 517 217 517 q 246 517 270 504 q 293 490 306 462 q 308 460 310 460 q 311 461 311 464 l 315 499 q 316 503 319 506 q 322 509 326 509 z m 273 157 l 297 352 q 298 357 298 366 q 298 397 282 416 q 266 434 239 434 q 208 434 186 411 q 164 388 159 352 l 135 157 q 134 152 134 143 q 134 113 150 94 q 167 75 194 75 q 225 75 247 98 q 269 121 273 157 z"},"L":{"x_min":0,"x_max":394,"ha":394,"o":"m 42 10 l 125 690 q 126 694 129 697 q 132 700 136 700 l 210 700 q 219 700 219 690 l 145 87 q 144 86 145 84 q 146 83 148 83 l 365 83 q 374 83 374 73 l 366 10 q 364 0 355 0 l 50 0 q 46 0 44 3 q 41 6 42 10 z"},"3":{"x_min":0,"x_max":406,"ha":406,"o":"m 373 278 q 373 259 369 215 q 363 166 349 124 q 327 59 286 26 q 244 -8 177 -8 q 110 -8 72 30 q 33 67 33 132 q 33 170 37 205 q 39 215 48 215 l 121 215 q 131 215 130 205 q 128 175 128 161 q 128 76 188 76 q 242 76 265 141 q 275 176 281 225 q 285 258 285 291 q 285 310 284 319 q 273 378 225 378 q 212 378 198 369 q 188 363 184 370 l 152 409 q 150 413 150 416 q 150 419 153 423 l 302 612 q 304 614 303 616 q 302 617 300 617 l 104 617 q 95 617 95 627 l 103 690 q 105 700 114 700 l 417 700 q 427 700 425 690 l 417 624 q 415 615 412 611 l 277 439 q 274 436 278 434 q 316 428 340 396 q 364 365 371 316 q 373 292 373 278 z"},";":{"x_min":0,"x_max":201,"ha":201,"o":"m 66 394 q 66 425 89 449 q 112 473 140 473 q 162 473 178 456 q 195 438 195 413 q 195 381 174 358 q 152 335 123 335 q 97 335 82 352 q 66 369 66 394 z m 12 -73 l 58 143 q 61 153 70 153 l 134 153 q 144 153 142 142 l 77 -74 q 76 -83 65 -83 l 21 -83 q 16 -83 14 -80 q 11 -77 12 -73 z"},"J":{"x_min":0,"x_max":422,"ha":422,"o":"m 18 140 q 18 148 20 168 l 29 247 q 31 257 40 257 l 114 257 q 124 257 122 247 l 113 166 q 112 160 112 150 q 112 116 130 96 q 149 75 180 75 q 215 75 240 100 q 265 126 270 166 l 334 690 q 336 700 345 700 l 419 700 q 423 700 426 697 q 428 694 427 690 l 363 168 q 353 89 300 40 q 247 -8 170 -8 q 100 -8 59 32 q 18 72 18 140 z"},"V":{"x_min":0,"x_max":443,"ha":443,"o":"m 151 9 l 95 689 q 95 700 105 700 l 186 700 q 195 700 195 691 l 224 172 q 224 170 226 170 q 227 170 228 172 l 382 691 q 384 700 393 700 l 471 700 q 481 700 478 689 l 255 9 q 254 0 243 0 l 161 0 q 153 0 151 9 z"},"\"":{"x_min":0,"x_max":266,"ha":266,"o":"m 69 492 l 84 686 q 86 696 94 696 l 165 696 q 175 696 173 686 l 140 492 q 139 482 129 482 l 79 482 q 68 482 69 492 z m 207 492 l 222 686 q 224 696 232 696 l 303 696 q 312 696 310 686 l 277 492 q 276 482 266 482 l 215 482 q 206 482 207 492 z"},"7":{"x_min":0,"x_max":369,"ha":369,"o":"m 74 11 l 312 613 q 313 614 312 616 q 310 617 309 617 l 155 617 q 151 617 151 613 l 146 573 q 144 563 135 563 l 78 563 q 69 563 69 573 l 85 690 q 86 700 96 700 l 412 700 q 422 700 420 690 l 412 623 q 412 620 411 617 q 410 614 409 611 l 171 8 q 168 0 159 0 l 81 0 q 76 0 74 3 q 72 6 74 11 z"},"S":{"x_min":0,"x_max":414,"ha":414,"o":"m 36 143 q 36 151 38 171 l 42 197 q 42 201 45 204 q 48 207 53 207 l 124 207 q 129 207 132 204 q 134 201 133 197 l 130 176 q 129 170 129 158 q 129 119 148 97 q 166 75 197 75 q 236 75 264 106 q 291 138 291 186 q 291 210 280 230 q 270 249 253 266 q 236 282 198 313 q 157 348 134 372 q 111 396 95 428 q 79 461 79 503 q 79 565 104 612 q 129 658 172 683 q 216 708 270 708 q 340 708 380 666 q 421 625 421 554 q 421 545 419 523 l 416 498 q 414 488 405 488 l 333 488 q 329 488 326 491 q 324 494 325 498 l 328 525 q 329 532 329 545 q 329 582 310 604 q 292 625 260 625 q 222 625 196 596 q 171 566 171 515 q 171 483 190 458 q 208 433 258 391 q 306 351 331 326 q 356 300 370 270 q 384 241 384 204 q 384 197 382 177 q 372 93 318 42 q 263 -8 187 -8 q 118 -8 77 33 q 36 74 36 143 z"},"}":{"x_min":0,"x_max":289,"ha":289,"o":"m 1 -130 q -4 -130 -6 -127 q -9 -124 -8 -120 l 0 -57 q 2 -47 11 -47 l 33 -47 q 58 -47 74 -28 q 89 -10 93 24 l 116 211 q 122 257 138 286 q 153 314 180 327 q 185 330 180 332 q 143 354 143 415 q 143 424 145 448 l 168 630 q 169 636 169 646 q 169 700 125 700 l 102 700 q 98 700 96 703 q 93 706 94 710 l 102 774 q 104 784 113 784 l 174 784 q 220 784 244 761 q 267 738 267 693 q 267 686 265 666 l 240 458 q 238 438 238 432 q 238 375 281 369 q 290 368 288 358 l 281 301 q 281 292 271 290 q 244 286 228 264 q 213 242 208 200 l 182 -13 q 167 -130 62 -130 z"},"Z":{"x_min":0,"x_max":389,"ha":389,"o":"m 10 10 l 18 77 q 20 83 23 89 l 312 612 q 313 614 312 616 q 311 617 310 617 l 94 617 q 84 617 86 627 l 93 690 q 94 694 97 697 q 100 700 104 700 l 414 700 q 424 700 422 690 l 414 623 q 414 621 410 611 l 119 88 q 118 86 119 84 q 120 83 122 83 l 338 83 q 347 83 347 73 l 339 10 q 337 0 328 0 l 18 0 q 14 0 12 3 q 9 6 10 10 z"},"x":{"x_min":0,"x_max":386,"ha":386,"o":"m 1 12 l 148 251 q 150 255 149 257 l 61 497 l 60 501 q 60 509 69 509 l 151 509 q 159 509 162 502 l 213 346 q 214 344 216 344 q 218 344 219 346 l 310 502 q 314 509 322 509 l 403 509 q 408 509 410 506 q 411 502 408 497 l 262 257 q 261 254 262 251 l 349 12 l 350 9 q 350 0 340 0 l 260 0 q 252 0 249 7 l 197 165 q 196 167 194 167 q 192 167 191 165 l 100 7 q 96 0 88 0 l 7 0 q 2 0 0 4 q -1 7 1 12 z"},")":{"x_min":0,"x_max":246,"ha":246,"o":"m 227 755 q 250 700 264 626 q 277 552 277 466 q 277 395 269 334 q 253 206 213 94 q 173 -17 121 -93 q 117 -100 109 -100 l 37 -100 q 32 -100 30 -96 q 28 -93 31 -88 q 76 -7 112 102 q 149 211 164 333 q 172 398 172 473 q 172 633 134 750 l 133 753 q 133 762 143 762 l 217 762 q 224 762 227 755 z"},"&":{"x_min":0,"x_max":547,"ha":547,"o":"m 488 7 q 488 0 479 0 l 400 0 q 392 0 388 6 l 372 35 q 370 39 368 44 q 365 49 361 55 q 358 58 355 55 q 278 -9 186 -9 q 114 -9 74 27 q 33 63 33 131 q 33 140 35 160 q 43 228 79 276 q 115 323 173 366 q 176 367 174 371 q 141 430 129 461 q 117 492 117 518 q 117 574 140 617 q 163 660 204 684 q 244 708 294 708 q 357 708 396 670 q 434 633 434 571 q 434 499 397 450 q 360 400 293 350 q 290 349 292 345 q 307 317 312 310 l 330 277 l 376 198 q 378 194 382 198 l 438 278 q 440 282 444 283 q 448 284 452 282 l 502 250 q 510 245 505 236 q 462 172 424 125 q 422 121 423 119 l 486 12 q 488 10 488 7 z m 211 524 q 211 506 218 486 q 225 465 246 425 q 249 421 252 424 q 295 457 318 488 q 340 519 340 559 q 340 587 326 604 q 311 621 286 621 q 253 621 232 594 q 211 567 211 524 z m 314 125 q 317 128 316 131 l 220 292 q 218 295 215 292 q 173 258 150 225 q 128 192 128 150 q 128 115 148 94 q 167 74 205 74 q 255 74 314 125 z"},"_":{"x_min":0,"x_max":380,"ha":380,"o":"m 0 10 l 7 65 q 9 75 18 75 l 342 75 q 352 75 350 65 l 344 10 q 342 0 333 0 l 9 0 q 0 0 0 10 z"},"v":{"x_min":0,"x_max":387,"ha":387,"o":"m 122 9 l 63 498 l 63 500 q 63 509 72 509 l 155 509 q 164 509 164 500 l 192 157 q 192 154 194 154 q 195 154 196 157 l 307 500 q 310 509 319 509 l 401 508 q 406 508 408 505 q 409 502 407 497 l 229 9 q 226 0 217 0 l 132 0 q 124 0 122 9 z"},"O":{"x_min":0,"x_max":448,"ha":448,"o":"m 47 145 q 47 155 49 175 l 91 524 q 101 607 156 658 q 211 708 291 708 q 364 708 406 666 q 449 623 449 552 q 449 544 447 524 l 404 175 q 394 92 338 42 q 283 -8 203 -8 q 131 -8 89 33 q 47 74 47 145 z m 310 171 l 354 529 q 355 535 355 545 q 355 581 335 603 q 315 625 280 625 q 243 625 216 598 q 190 572 185 529 l 141 171 q 140 165 140 154 q 140 118 160 96 q 179 75 213 75 q 251 75 278 102 q 305 128 310 171 z"},"(":{"x_min":0,"x_max":246,"ha":246,"o":"m 61 -93 q 38 -38 24 36 q 11 109 11 193 q 11 258 20 328 q 36 456 76 568 q 115 679 167 755 q 173 762 180 762 l 251 762 q 256 762 258 758 q 260 755 257 750 q 212 669 176 560 q 140 451 125 329 q 116 256 116 188 q 116 35 154 -88 l 155 -91 q 155 -100 145 -100 l 72 -100 q 65 -100 61 -93 z"},"C":{"x_min":0,"x_max":439,"ha":439,"o":"m 46 144 q 46 153 48 173 l 92 528 q 102 610 156 659 q 210 708 289 708 q 360 708 402 668 q 444 628 444 558 q 444 548 442 528 l 440 512 q 438 502 429 502 l 355 498 q 345 498 347 508 l 350 534 q 351 539 351 550 q 351 584 332 604 q 312 625 279 625 q 242 625 216 600 q 191 575 186 534 l 141 166 q 140 160 140 150 q 140 116 159 96 q 178 75 211 75 q 248 75 274 100 q 300 125 305 166 l 308 192 q 310 202 319 202 l 392 198 q 402 198 400 188 l 399 173 q 389 91 335 42 q 281 -8 201 -8 q 129 -8 88 33 q 46 74 46 144 z"},"W":{"x_min":0,"x_max":627,"ha":627,"o":"m 136 9 l 90 689 q 90 694 93 697 q 96 700 100 700 l 177 700 q 186 700 187 691 l 208 222 q 208 220 210 220 q 211 220 212 222 l 339 691 q 342 700 350 700 l 415 700 q 423 700 423 691 l 440 222 q 441 220 442 220 q 443 220 444 222 l 574 691 q 576 700 585 700 l 660 700 q 670 700 668 689 l 462 9 q 459 0 450 0 l 381 0 q 373 0 373 9 l 357 482 q 356 484 354 484 q 353 484 353 482 l 225 9 q 222 0 214 0 l 146 0 q 136 0 136 9 z"},"A":{"x_min":0,"x_max":423,"ha":423,"o":"m 297 9 l 290 124 q 290 126 288 127 q 287 128 285 128 l 127 128 q 125 128 124 127 q 122 126 122 124 l 87 9 q 86 0 76 0 l 2 0 q -3 0 -5 3 q -7 6 -5 11 l 223 691 q 225 700 234 700 l 321 700 q 330 700 330 691 l 392 11 q 392 0 382 0 l 307 0 q 297 0 297 9 z m 151 204 l 280 204 q 282 204 284 208 l 261 563 q 261 565 260 565 q 258 565 257 563 l 149 208 q 148 207 149 206 q 150 204 151 204 z"},"f":{"x_min":0,"x_max":276,"ha":276,"o":"m 209 513 q 209 509 213 509 l 281 509 q 291 509 289 499 l 283 449 q 281 439 272 439 l 204 439 q 200 439 200 435 l 148 10 q 146 0 137 0 l 64 0 q 54 0 56 10 l 108 435 q 108 439 104 439 l 68 439 q 64 439 62 442 q 59 445 60 449 l 66 499 q 68 509 77 509 l 113 509 q 117 509 117 513 l 121 539 q 131 628 172 666 q 212 705 293 705 l 306 705 q 316 705 314 695 l 305 634 q 304 624 294 624 l 284 624 q 253 624 236 602 q 218 581 212 536 z"},"Q":{"x_min":0,"x_max":436,"ha":436,"o":"m 436 552 q 436 542 434 520 l 393 180 q 384 110 346 62 q 307 14 248 -1 q 245 -3 245 -6 l 233 -99 q 233 -103 230 -106 q 227 -109 222 -109 l 148 -109 q 143 -109 140 -106 q 138 -103 139 -99 l 151 -6 q 151 -3 148 -1 q 100 13 74 53 q 47 93 47 150 q 47 160 49 180 l 91 520 q 102 604 156 656 q 209 708 286 708 q 355 708 396 666 q 436 623 436 552 z m 342 530 q 343 536 343 547 q 343 582 325 604 q 307 625 276 625 q 241 625 216 598 q 190 572 185 530 l 141 170 q 140 164 140 153 q 140 118 158 96 q 177 75 208 75 q 243 75 268 102 q 293 128 298 170 z"},"w":{"x_min":0,"x_max":558,"ha":558,"o":"m 106 9 l 62 498 q 62 509 72 509 l 143 509 q 152 509 153 500 l 170 155 q 171 153 172 153 q 173 153 174 155 l 278 500 q 280 509 289 509 l 353 509 q 363 509 363 500 l 384 155 q 384 153 386 153 q 387 153 388 155 l 491 500 q 494 509 503 509 l 573 508 q 577 508 580 505 q 582 502 580 497 l 415 9 q 414 0 404 0 l 331 0 q 321 0 321 9 l 300 337 q 300 339 298 339 q 297 339 296 337 l 197 9 q 194 0 185 0 l 115 0 q 106 0 106 9 z"},"-":{"x_min":0,"x_max":310,"ha":310,"o":"m 42 274 l 50 337 q 52 347 61 347 l 296 347 q 306 347 304 337 l 297 274 q 296 270 293 267 q 290 264 286 264 l 51 264 q 42 264 42 274 z"},"E":{"x_min":0,"x_max":419,"ha":419,"o":"m 432 617 l 213 617 q 212 617 210 616 q 209 615 209 613 l 182 396 q 182 392 186 392 l 320 392 q 330 392 328 382 l 320 319 q 320 315 317 312 q 314 309 310 309 l 176 309 q 173 309 171 305 l 145 87 q 144 86 145 84 q 146 83 148 83 l 366 83 q 375 83 375 73 l 367 10 q 365 0 356 0 l 50 0 q 46 0 44 3 q 41 6 42 10 l 125 690 q 126 694 129 697 q 132 700 136 700 l 442 700 q 452 700 450 690 l 443 627 q 441 617 432 617 z"},"s":{"x_min":0,"x_max":375,"ha":375,"o":"m 29 110 q 29 123 30 129 l 31 138 q 32 142 35 145 q 38 148 42 148 l 111 148 q 116 148 118 145 q 121 142 120 138 l 119 131 q 115 104 133 86 q 151 67 182 67 q 214 67 234 88 q 255 108 255 138 q 255 166 235 180 q 215 195 171 215 q 139 230 118 244 q 96 258 80 284 q 63 310 63 348 q 63 362 64 370 q 72 438 118 476 q 164 514 234 514 q 299 514 335 482 q 371 449 371 392 q 371 377 370 369 l 370 366 q 368 356 359 356 l 292 356 q 282 356 284 366 l 284 373 l 285 382 q 285 406 269 422 q 253 438 226 438 q 197 438 177 419 q 157 400 153 373 q 151 352 161 338 q 171 324 186 316 q 202 307 236 291 q 270 274 292 260 q 315 245 332 219 q 349 193 349 156 q 349 83 300 38 q 251 -6 171 -6 q 105 -6 67 25 q 29 56 29 110 z"},">":{"x_min":0,"x_max":427,"ha":427,"o":"m 22 58 q 19 58 18 60 q 16 63 17 67 l 26 139 q 26 146 34 150 l 319 277 q 326 280 320 283 l 66 410 q 62 412 61 415 q 60 418 60 421 l 69 494 q 70 499 74 502 q 78 504 82 501 l 413 327 q 419 322 418 315 l 409 246 q 409 239 401 234 l 28 60 q 24 58 22 58 z"},"l":{"x_min":0,"x_max":186,"ha":186,"o":"m 28 10 l 112 690 q 114 700 123 700 l 197 700 q 201 700 204 697 q 206 694 205 690 l 122 10 q 121 6 118 3 q 115 0 111 0 l 37 0 q 28 0 28 10 z"},"8":{"x_min":0,"x_max":416,"ha":416,"o":"m 327 366 q 359 347 371 309 q 380 279 380 241 q 380 221 377 198 q 371 146 352 104 q 327 51 284 22 q 241 -8 187 -8 q 133 -8 98 21 q 62 50 50 103 q 45 130 45 154 q 45 176 48 198 q 56 259 78 302 q 99 345 140 365 q 144 368 141 371 q 109 392 96 428 q 86 454 86 492 q 86 514 88 526 q 96 586 120 625 q 144 666 185 688 q 226 711 275 711 q 324 711 358 690 q 393 668 409 627 q 420 601 420 562 q 420 539 418 526 q 411 469 386 429 q 365 395 328 372 q 324 369 327 366 z m 179 518 q 177 500 177 492 q 177 470 183 453 q 188 430 202 418 q 216 406 238 406 q 260 406 278 420 q 296 433 307 456 q 322 484 326 518 q 327 526 327 540 q 327 566 320 583 q 315 604 300 616 q 286 628 265 628 q 222 628 198 580 q 184 556 179 518 z m 286 203 q 288 229 288 239 q 288 262 284 277 q 280 303 266 317 q 252 331 229 331 q 206 331 188 316 q 169 302 158 274 q 146 245 140 204 q 138 174 138 163 q 138 121 153 98 q 168 75 197 75 q 223 75 243 93 q 263 111 273 143 q 281 165 286 203 z"},"\\":{"x_min":0,"x_max":352,"ha":352,"o":"m 313 9 q 313 5 310 2 q 307 0 303 0 l 230 0 q 223 0 220 8 l 115 689 l 115 691 q 115 700 125 700 l 197 700 q 205 700 207 692 l 313 11 z"},"e":{"x_min":0,"x_max":405,"ha":405,"o":"m 365 215 l 146 215 q 143 215 141 211 l 135 157 q 134 152 134 143 q 134 113 150 94 q 167 75 194 75 q 221 75 242 92 q 262 109 271 136 q 275 144 282 144 l 354 140 q 359 140 360 137 q 362 134 361 130 q 347 65 301 28 q 255 -8 184 -8 q 116 -8 78 28 q 39 63 39 125 q 39 132 41 150 l 66 358 q 75 429 125 473 q 175 517 249 517 q 317 517 356 481 q 394 445 394 384 q 394 376 392 358 l 376 225 q 374 215 365 215 z m 159 352 l 152 299 q 152 295 156 295 l 288 295 q 290 295 292 296 q 293 297 293 299 l 299 352 q 300 357 300 366 q 300 397 284 416 q 267 434 239 434 q 208 434 186 411 q 164 388 159 352 z"},"b":{"x_min":0,"x_max":418,"ha":418,"o":"m 402 388 q 402 378 400 358 l 374 150 q 366 79 324 36 q 281 -8 217 -8 q 194 -8 172 1 q 149 10 132 28 q 129 32 127 26 l 125 10 q 125 6 122 3 q 119 0 114 0 l 41 0 q 32 0 32 10 l 116 690 q 116 694 119 697 q 122 700 127 700 l 200 700 q 205 700 208 697 q 210 694 209 690 l 183 482 q 183 480 185 480 q 187 479 189 482 q 229 517 282 517 q 338 517 370 483 q 402 449 402 388 z m 308 366 q 308 396 291 415 q 274 434 246 434 q 216 434 194 411 q 171 388 167 352 l 143 157 l 142 144 q 142 113 158 94 q 174 75 202 75 q 233 75 256 98 q 278 121 283 157 l 307 352 q 308 357 308 366 z"},"%":{"x_min":0,"x_max":753,"ha":753,"o":"m 109 543 q 109 587 132 626 q 154 664 191 686 q 228 709 269 709 q 322 709 357 672 q 392 635 392 581 q 392 536 370 498 q 348 459 311 436 q 274 413 233 413 q 179 413 144 450 q 109 487 109 543 z m 146 12 l 586 693 q 589 700 598 700 l 646 700 q 651 700 654 696 q 656 693 652 688 l 212 7 q 209 0 200 0 l 152 0 q 147 0 144 4 q 142 7 146 12 z m 339 574 q 339 609 317 632 q 295 656 263 656 q 222 656 192 624 q 162 593 162 550 q 162 514 184 490 q 206 467 240 467 q 279 467 309 498 q 339 530 339 574 z m 408 120 q 408 164 430 202 q 453 241 490 264 q 527 287 568 287 q 621 287 656 250 q 691 213 691 158 q 691 114 669 76 q 647 37 610 14 q 573 -9 531 -9 q 478 -9 443 28 q 408 65 408 120 z m 638 151 q 638 186 616 210 q 594 233 561 233 q 522 233 492 201 q 461 169 461 127 q 461 91 482 68 q 504 44 538 44 q 578 44 608 76 q 638 108 638 151 z"},"m":{"x_min":0,"x_max":638,"ha":638,"o":"m 617 387 q 617 368 614 347 l 573 10 q 572 6 569 3 q 566 0 562 0 l 489 0 q 480 0 480 10 l 521 340 q 522 347 522 361 q 522 395 508 414 q 493 433 468 433 q 437 433 416 408 q 394 384 389 341 l 348 10 q 348 6 345 3 q 342 0 338 0 l 265 0 q 256 0 256 10 l 297 340 q 298 347 298 361 q 298 395 284 414 q 269 433 244 433 q 213 433 192 408 q 170 384 165 341 l 124 10 q 124 6 121 3 q 118 0 113 0 l 41 0 q 32 0 32 10 l 92 499 q 94 509 103 509 l 176 509 q 186 509 184 499 l 181 474 q 181 472 182 471 q 184 470 186 472 q 209 495 235 506 q 261 516 286 516 q 361 516 384 449 q 385 447 387 448 q 389 448 390 452 q 413 486 446 501 q 478 516 510 516 q 562 516 590 482 q 617 448 617 387 z"},"#":{"x_min":0,"x_max":581,"ha":581,"o":"m 557 420 l 495 420 q 490 420 490 416 l 454 278 q 454 274 457 274 l 507 274 q 517 274 515 264 l 508 201 q 506 191 497 191 l 434 191 q 429 191 428 187 l 387 29 q 384 20 376 20 l 302 21 q 298 21 296 24 q 293 27 295 32 l 335 187 q 336 188 335 190 q 334 191 333 191 l 213 191 q 208 191 207 187 l 166 29 q 163 20 155 20 l 81 21 q 77 21 74 24 q 72 27 74 32 l 114 187 q 114 191 112 191 l 60 191 q 50 191 52 201 l 60 264 q 60 268 63 271 q 66 274 71 274 l 135 274 q 139 274 140 278 l 175 416 q 175 420 173 420 l 120 420 q 116 420 114 423 q 111 426 112 430 l 120 494 q 122 504 131 504 l 196 504 q 201 504 201 508 l 243 666 q 246 675 254 675 l 327 674 q 331 674 334 671 q 336 668 335 663 l 294 508 q 294 504 297 504 l 417 504 q 422 504 422 508 l 464 666 q 467 675 475 675 l 548 674 q 552 674 554 671 q 557 668 556 663 l 515 508 q 515 504 518 504 l 567 504 q 576 504 576 494 l 568 430 q 566 420 557 420 z m 361 278 l 396 416 q 397 417 396 418 q 395 420 394 420 l 274 420 q 269 420 268 416 l 233 278 q 233 274 235 274 l 356 274 q 361 274 361 278 z"},",":{"x_min":0,"x_max":184,"ha":184,"o":"m 5 -75 l 61 147 q 64 156 72 156 l 136 156 q 146 156 143 145 l 69 -77 q 66 -86 57 -86 l 14 -86 q 10 -86 7 -83 q 4 -80 5 -75 z"},"n":{"x_min":0,"x_max":419,"ha":419,"o":"m 400 391 q 400 373 397 353 l 355 10 q 355 6 352 3 q 349 0 344 0 l 271 0 q 266 0 264 3 q 261 6 262 10 l 303 345 q 304 352 304 366 q 304 398 290 416 q 275 433 248 433 q 216 433 195 410 q 174 388 168 347 q 167 341 166 341 l 125 10 q 125 6 122 3 q 119 0 114 0 l 41 0 q 32 0 32 10 l 92 499 q 94 509 103 509 l 177 509 q 187 509 185 499 l 182 472 q 182 470 184 470 q 186 469 188 472 q 228 516 291 516 q 344 516 372 484 q 400 451 400 391 z"},"h":{"x_min":0,"x_max":419,"ha":419,"o":"m 400 391 q 400 373 397 353 l 355 10 q 355 6 352 3 q 349 0 344 0 l 271 0 q 266 0 264 3 q 261 6 262 10 l 303 345 q 304 352 304 366 q 304 398 290 416 q 275 433 248 433 q 216 433 195 410 q 174 388 168 347 q 167 341 166 341 l 125 10 q 125 6 122 3 q 119 0 114 0 l 41 0 q 32 0 32 10 l 116 690 q 116 694 119 697 q 122 700 127 700 l 200 700 q 205 700 208 697 q 210 694 209 690 l 182 472 q 182 470 184 470 q 186 469 188 472 q 228 516 291 516 q 344 516 372 484 q 400 451 400 391 z"},"z":{"x_min":0,"x_max":354,"ha":354,"o":"m 9 10 l 18 80 q 18 85 22 93 l 243 416 q 244 418 244 420 q 243 421 241 421 l 73 421 q 63 421 65 431 l 73 499 q 75 509 84 509 l 358 509 q 363 509 366 506 q 368 503 367 499 l 358 428 q 358 423 354 415 l 128 92 q 126 90 127 88 q 128 87 130 87 l 309 87 q 314 87 316 84 q 319 81 318 77 l 310 10 q 308 0 299 0 l 17 0 q 13 0 10 3 q 8 6 9 10 z"},"B":{"x_min":0,"x_max":443,"ha":443,"o":"m 212 0 l 50 0 q 46 0 44 3 q 41 6 42 10 l 125 690 q 126 694 129 697 q 132 700 136 700 l 285 700 q 364 700 408 661 q 452 622 452 548 q 452 538 450 514 q 436 405 357 365 q 353 362 355 360 q 420 316 420 224 q 420 215 418 193 q 407 101 351 50 q 295 0 212 0 z m 209 613 l 183 401 q 183 399 184 398 q 185 397 186 397 l 249 397 q 300 397 330 432 q 360 468 360 529 q 360 571 338 594 q 316 617 276 617 l 213 617 q 212 617 210 616 q 209 615 209 613 z m 326 203 q 328 221 328 229 q 328 275 306 300 q 285 326 246 326 l 178 326 q 175 326 173 322 l 145 88 q 144 87 145 86 q 146 84 148 84 l 215 84 q 260 84 290 115 q 319 146 326 203 z"},"K":{"x_min":0,"x_max":452,"ha":452,"o":"m 42 10 l 125 690 q 126 694 129 697 q 132 700 136 700 l 210 700 q 219 700 219 690 l 182 390 q 181 387 183 386 q 185 386 186 389 l 389 693 q 394 700 401 700 l 481 700 q 486 700 488 696 q 490 693 486 688 l 303 410 q 300 407 302 404 l 416 12 l 416 9 q 416 5 413 2 q 410 0 406 0 l 326 0 q 317 0 316 8 l 228 320 q 228 322 226 322 q 225 322 224 321 l 164 240 q 163 239 163 235 l 135 10 q 133 0 124 0 l 50 0 q 46 0 44 3 q 41 6 42 10 z"},"R":{"x_min":0,"x_max":440,"ha":440,"o":"m 300 8 l 247 306 q 246 309 244 309 l 176 309 q 173 309 171 305 l 135 10 q 133 0 124 0 l 50 0 q 46 0 44 3 q 41 6 42 10 l 125 690 q 126 694 129 697 q 132 700 136 700 l 310 700 q 376 700 415 656 q 454 611 454 537 q 454 514 452 501 q 445 438 414 391 q 383 344 337 324 q 333 321 334 318 l 395 11 l 395 9 q 395 0 386 0 l 310 0 q 307 0 304 2 q 301 4 300 8 z m 209 613 l 182 389 q 181 388 182 386 q 183 385 185 385 l 257 385 q 301 385 331 424 q 361 463 361 524 q 361 567 340 592 q 320 617 285 617 l 213 617 q 212 617 210 616 q 209 615 209 613 z"},"T":{"x_min":0,"x_max":426,"ha":426,"o":"m 462 690 l 454 627 q 454 623 451 620 q 448 617 443 617 l 316 617 q 312 617 312 613 l 238 10 q 236 0 227 0 l 153 0 q 143 0 145 10 l 219 613 q 219 617 215 617 l 95 617 q 85 617 87 627 l 94 690 q 95 694 98 697 q 101 700 105 700 l 454 700 q 458 700 460 697 q 463 694 462 690 z"},"P":{"x_min":0,"x_max":437,"ha":437,"o":"m 453 537 q 453 513 451 500 q 441 412 390 358 q 338 304 265 304 l 174 304 q 170 304 170 300 l 134 10 q 132 0 123 0 l 49 0 q 45 0 42 3 q 40 6 41 10 l 125 691 q 125 695 128 698 q 131 701 136 701 l 309 701 q 375 701 414 656 q 453 612 453 537 z m 358 498 q 360 516 360 523 q 360 567 340 592 q 319 618 284 618 l 213 618 q 210 618 208 614 l 180 385 q 180 381 184 381 l 255 381 q 295 381 323 412 q 351 444 358 498 z"},"|":{"x_min":0,"x_max":154,"ha":154,"o":"m 2 -70 l 103 750 q 103 754 106 757 q 109 760 114 760 l 187 760 q 192 760 194 757 q 197 754 196 750 l 95 -70 q 93 -80 84 -80 l 11 -80 q 6 -80 4 -77 q 1 -74 2 -70 z"},"t":{"x_min":0,"x_max":267,"ha":267,"o":"m 268 439 l 200 439 q 196 439 196 435 l 161 154 q 160 147 160 134 q 160 105 172 94 q 184 83 209 84 l 218 84 q 228 84 226 74 l 219 10 q 218 6 215 3 q 212 0 208 0 l 178 0 q 122 0 94 20 q 65 39 65 92 q 65 100 67 120 l 106 435 q 106 439 102 439 l 65 439 q 60 439 58 442 q 55 445 56 449 l 62 499 q 64 509 73 509 l 111 509 q 115 509 115 513 l 129 626 q 131 636 140 636 l 211 636 q 221 636 219 626 l 206 513 q 205 512 206 510 q 207 509 209 509 l 277 509 q 287 509 285 499 l 279 449 q 277 439 268 439 z"},"M":{"x_min":0,"x_max":515,"ha":515,"o":"m 440 700 l 514 700 q 524 700 522 690 l 439 10 q 437 0 428 0 l 354 0 q 344 0 346 10 l 406 506 q 407 509 406 509 q 404 509 402 507 l 287 328 q 283 321 277 321 q 272 321 269 328 l 199 506 q 197 508 196 508 q 194 508 194 505 l 133 10 q 131 0 122 0 l 48 0 q 44 0 42 3 q 39 6 40 10 l 124 690 q 124 694 127 697 q 130 700 134 700 l 208 700 q 216 700 219 693 l 298 505 q 298 504 300 504 q 302 504 304 505 l 427 693 q 432 700 440 700 z"},"g":{"x_min":0,"x_max":411,"ha":411,"o":"m 326 509 l 400 509 q 409 509 409 499 l 349 15 q 336 -90 282 -148 q 229 -205 115 -205 l 89 -204 q 79 -202 81 -193 l 89 -129 q 91 -119 100 -119 q 180 -122 214 -86 q 248 -51 257 24 l 260 45 q 260 47 258 48 q 257 48 255 46 q 235 22 209 11 q 183 0 155 0 q 99 0 70 34 q 40 67 40 126 q 40 136 42 158 l 66 358 q 75 432 116 474 q 156 517 219 517 q 281 517 307 471 q 309 469 310 470 q 312 471 312 473 l 315 499 q 316 503 319 506 q 322 509 326 509 z m 274 164 l 297 352 q 298 357 298 367 q 298 397 282 416 q 266 434 239 434 q 208 434 186 411 q 164 388 159 352 l 136 164 q 135 159 135 150 q 135 120 152 102 q 168 83 195 83 q 226 83 248 106 q 269 128 274 164 z"},"j":{"x_min":0,"x_max":200,"ha":200,"o":"m 95 643 q 95 675 116 696 q 136 717 166 717 q 191 717 206 702 q 221 686 221 661 q 221 631 200 610 q 180 589 150 589 q 125 589 110 604 q 95 619 95 643 z m -81 -197 l -74 -134 q -72 -124 -63 -124 q 17 -123 28 -28 l 92 499 q 94 509 103 509 l 177 509 q 187 509 185 499 l 121 -28 q 113 -90 96 -128 q 79 -165 40 -186 q 1 -207 -70 -207 q -82 -207 -81 -197 z"},"i":{"x_min":0,"x_max":205,"ha":205,"o":"m 100 643 q 100 675 120 696 q 141 717 170 717 q 195 717 210 702 q 225 687 225 662 q 225 631 204 610 q 184 589 155 589 q 130 589 115 604 q 100 619 100 643 z m 38 10 l 98 499 q 100 509 109 509 l 183 509 q 193 509 191 499 l 131 10 q 129 0 120 0 l 47 0 q 42 0 40 3 q 37 6 38 10 z"},"y":{"x_min":0,"x_max":376,"ha":376,"o":"m -8 -189 l 0 -130 q 0 -126 3 -123 q 6 -120 10 -120 q 41 -119 60 -110 q 79 -101 94 -76 q 108 -51 122 -3 l 121 2 l 58 498 l 58 500 q 58 504 61 506 q 64 509 68 509 l 148 509 q 157 509 157 500 l 184 139 q 184 136 186 136 q 187 136 188 139 l 302 500 q 305 509 314 509 l 394 508 q 399 508 401 505 q 403 502 401 497 l 202 -35 q 176 -104 153 -138 q 130 -171 96 -185 q 62 -199 2 -199 l -3 -199 q -8 -199 -8 -189 z"},"@":{"x_min":0,"x_max":737,"ha":737,"o":"m 720 388 q 720 343 708 292 q 684 196 630 142 q 576 89 505 89 q 444 89 417 130 q 414 133 411 130 q 395 108 372 98 q 350 88 327 88 q 285 88 260 111 q 234 134 234 174 q 234 189 236 198 q 238 210 246 244 l 254 276 q 258 296 271 343 q 286 396 318 426 q 349 455 396 455 q 409 455 424 449 q 440 443 451 431 q 452 429 454 430 q 455 430 456 432 l 458 440 q 459 449 468 449 l 514 449 q 519 449 521 446 q 523 442 522 438 l 474 243 q 470 227 470 210 q 470 183 484 168 q 498 153 523 153 q 562 153 592 191 q 623 229 639 293 q 650 340 650 376 q 650 465 596 516 q 543 568 451 568 q 379 568 312 530 q 245 492 195 424 q 145 356 124 269 q 113 225 113 181 q 113 118 138 73 q 162 28 204 5 q 247 -18 300 -18 q 343 -18 380 -6 q 418 6 445 25 q 449 27 449 28 q 450 29 453 29 q 459 29 461 24 l 479 -12 q 480 -13 480 -16 q 480 -22 474 -26 q 437 -51 388 -66 q 338 -82 282 -82 q 212 -82 158 -52 q 105 -22 76 34 q 46 89 46 165 q 46 212 60 273 q 85 376 147 458 q 209 539 293 584 q 377 630 466 630 q 543 630 600 600 q 658 571 689 516 q 720 461 720 388 z m 400 203 q 402 206 402 209 q 403 212 404 215 l 404 219 q 406 231 407 232 l 435 347 q 436 348 436 351 q 437 372 427 384 q 417 397 399 397 q 377 397 360 381 q 342 365 336 339 l 329 313 q 322 289 318 271 l 302 203 q 300 191 300 187 q 300 167 310 156 q 319 146 337 146 q 359 146 376 162 q 392 177 400 203 z"},".":{"x_min":0,"x_max":196,"ha":196,"o":""},"p":{"x_min":0,"x_max":422,"ha":422,"o":"m 407 387 q 407 379 405 359 l 379 151 q 370 77 328 34 q 285 -8 222 -8 q 199 -8 176 1 q 154 10 137 29 q 134 32 132 27 l 107 -181 q 105 -191 96 -191 l 22 -191 q 12 -191 14 -181 l 97 499 q 99 509 108 509 l 182 509 q 192 509 190 499 l 188 483 q 188 481 190 480 q 192 480 194 482 q 234 517 287 517 q 343 517 375 482 q 407 446 407 387 z m 313 366 q 313 396 296 415 q 279 434 251 434 q 220 434 198 411 q 177 388 172 352 l 148 157 q 147 152 147 143 q 147 112 163 94 q 179 75 207 75 q 238 75 260 98 q 283 121 288 157 l 312 352 q 313 357 313 366 z"},"X":{"x_min":0,"x_max":435,"ha":435,"o":"m 15 12 l 191 347 q 192 349 192 353 l 98 688 l 97 691 q 97 700 107 700 l 183 700 q 190 700 193 692 l 251 451 q 252 448 254 448 q 256 448 257 451 l 374 692 q 378 700 386 700 l 461 700 q 466 700 468 696 q 470 693 468 688 l 292 352 q 289 349 291 346 l 385 12 l 385 9 q 385 5 382 2 q 379 0 375 0 l 301 0 q 292 0 291 8 l 232 248 q 232 251 230 251 q 228 251 226 248 l 109 8 q 105 0 97 0 l 21 0 q 16 0 14 4 q 12 7 15 12 z"},"*":{"x_min":0,"x_max":350,"ha":350,"o":"m 178 405 l 191 512 q 191 514 190 515 q 188 516 186 515 l 92 460 l 87 458 q 83 458 79 464 l 65 497 q 64 499 64 502 q 64 507 70 511 l 168 567 q 170 568 170 570 q 170 572 168 573 l 84 629 q 77 635 83 643 l 105 677 q 112 686 120 681 l 200 625 q 202 624 204 625 q 205 626 205 628 l 218 736 q 219 740 222 743 q 225 746 229 746 l 266 746 q 275 746 275 736 l 260 628 q 260 625 262 624 q 263 623 265 625 l 359 681 l 364 683 q 370 683 372 677 l 386 643 l 388 638 q 388 634 382 629 l 284 573 q 282 572 282 570 q 282 568 283 567 l 367 511 q 374 506 369 497 l 346 463 q 339 454 332 459 l 251 515 q 250 517 248 516 q 247 515 246 512 l 234 405 q 232 395 223 395 l 186 395 q 176 395 178 405 z"},"Y":{"x_min":0,"x_max":429,"ha":429,"o":"m 150 11 l 185 297 q 185 298 184 300 q 184 301 185 302 l 97 689 l 97 691 q 97 700 106 700 l 184 700 q 192 700 195 692 l 243 416 q 244 414 246 414 q 248 414 249 416 l 365 692 q 370 700 378 700 l 456 700 q 461 700 462 697 q 464 694 462 689 l 280 302 q 278 300 278 297 l 243 11 q 241 1 232 1 l 158 1 q 148 1 150 11 z"},"c":{"x_min":0,"x_max":401,"ha":401,"o":"m 39 125 q 39 133 41 151 l 66 358 q 75 429 125 473 q 175 517 249 517 q 317 517 356 481 q 396 445 396 388 q 396 375 395 369 l 393 356 q 391 346 382 346 l 308 343 q 299 343 299 353 l 301 363 q 304 392 286 413 q 269 434 239 434 q 208 434 186 411 q 164 388 159 352 l 135 157 q 134 152 134 143 q 134 112 150 94 q 166 75 194 75 q 225 75 248 96 q 270 117 274 146 l 275 156 q 277 166 286 166 l 360 165 q 370 165 368 155 l 366 140 q 358 75 308 34 q 259 -8 184 -8 q 116 -8 78 28 q 39 63 39 125 z"},"!":{"x_min":0,"x_max":254,"ha":254,"o":"m 100 242 l 146 690 q 148 700 157 700 l 230 700 q 235 700 238 697 q 240 694 239 690 l 174 242 q 173 232 163 232 l 108 232 q 99 232 100 242 z m 53 57 q 53 89 74 110 q 94 131 124 131 q 149 131 164 116 q 179 102 179 77 q 179 46 158 24 q 137 3 108 3 q 83 3 68 18 q 53 33 53 57 z"},"/":{"x_min":0,"x_max":352,"ha":352,"o":"m 3 11 l 276 692 q 281 700 288 700 l 360 700 q 365 700 368 697 q 370 694 368 689 l 95 8 q 92 0 83 0 l 11 0 q 6 0 4 3 q 1 6 3 11 z"},"[":{"x_min":0,"x_max":308,"ha":308,"o":"m -8 -120 l 102 774 q 104 784 113 784 l 282 784 q 286 784 288 781 q 291 778 290 774 l 282 710 q 280 700 271 700 l 190 700 q 187 700 185 696 l 95 -43 q 94 -44 95 -46 q 96 -47 98 -47 l 180 -47 q 185 -47 188 -50 q 190 -53 189 -57 l 181 -120 q 179 -130 170 -130 l 1 -130 q -4 -130 -6 -127 q -9 -124 -8 -120 z"},"6":{"x_min":0,"x_max":408,"ha":408,"o":"m 384 215 q 382 199 372 146 q 357 72 309 32 q 261 -8 190 -8 q 124 -8 86 29 q 49 66 48 138 q 46 169 51 208 l 90 534 q 100 613 151 660 q 202 708 277 708 q 339 708 377 668 q 415 629 415 563 q 415 554 413 534 l 410 512 q 408 502 399 502 l 325 502 q 321 502 318 505 q 316 508 317 512 l 319 530 q 320 536 320 549 q 320 582 305 602 q 290 622 266 622 q 234 622 211 596 q 188 571 183 530 l 170 420 q 170 415 174 418 q 206 447 249 447 q 315 447 352 405 q 388 363 387 293 q 389 251 384 215 z m 291 221 q 294 246 294 299 q 288 364 235 364 q 181 364 160 296 q 151 267 145 221 q 141 175 141 149 q 144 75 199 75 q 228 75 248 95 q 269 115 279 154 q 285 179 291 221 z"},"r":{"x_min":0,"x_max":295,"ha":295,"o":"m 322 503 q 328 498 325 490 l 301 414 q 298 405 289 408 q 277 413 262 413 q 256 413 244 411 q 213 408 190 377 q 166 346 161 302 l 125 10 q 125 6 122 3 q 119 0 114 0 l 41 0 q 32 0 32 10 l 92 499 q 94 509 103 509 l 177 509 q 187 509 185 499 l 178 441 q 178 438 180 438 q 181 437 182 440 q 220 514 281 514 q 305 514 322 503 z"},"2":{"x_min":0,"x_max":402,"ha":402,"o":"m 138 83 l 360 83 q 365 83 368 80 q 370 77 369 73 l 361 10 q 359 0 350 0 l 24 0 q 14 0 16 10 l 24 76 q 24 82 29 89 l 88 164 q 103 184 152 246 q 200 307 235 357 q 315 470 315 547 q 315 584 299 604 q 283 625 254 625 q 222 625 200 599 q 177 573 173 530 l 168 490 q 166 480 157 480 l 81 480 q 71 480 73 490 l 78 533 q 91 612 143 660 q 195 708 268 708 q 334 708 372 666 q 410 625 410 556 q 410 546 408 526 q 402 477 379 426 q 356 376 314 318 q 281 273 201 172 l 136 88 q 133 83 138 83 z"},"{":{"x_min":0,"x_max":289,"ha":289,"o":"m 64 -38 q 64 -31 66 -13 l 92 200 q 94 220 94 227 q 94 283 51 290 q 42 291 44 301 l 51 358 q 51 367 61 369 q 88 374 104 396 q 119 417 124 458 l 150 666 q 164 784 269 784 l 331 784 q 341 784 339 774 l 332 710 q 330 700 321 700 l 297 700 q 273 700 258 682 q 242 664 238 630 l 216 448 q 210 402 194 374 q 179 346 152 332 q 147 330 152 327 q 189 304 189 242 q 189 233 187 211 l 164 24 q 163 18 163 6 q 163 -20 174 -34 q 185 -47 206 -47 l 229 -47 q 239 -47 237 -57 l 230 -120 q 228 -130 219 -130 l 157 -130 q 64 -130 64 -38 z"},"9":{"x_min":0,"x_max":402,"ha":402,"o":"m 359 166 q 349 87 298 40 q 247 -8 172 -8 q 109 -8 72 32 q 34 71 34 137 q 34 146 36 166 l 39 188 q 39 192 42 195 q 45 198 50 198 l 123 198 q 132 198 132 188 l 130 170 q 129 164 129 151 q 129 118 144 98 q 159 78 182 78 q 214 78 238 104 q 261 129 265 170 l 279 280 q 279 285 274 282 q 243 253 200 253 q 135 253 98 296 q 61 338 62 407 q 61 413 61 427 q 61 443 65 485 q 70 523 77 554 q 92 628 140 668 q 188 708 259 708 q 326 708 363 671 q 400 634 401 562 q 403 531 398 492 z m 303 479 q 308 517 308 551 q 303 625 249 625 q 221 625 200 605 q 180 585 170 546 q 161 504 159 479 q 154 435 155 401 q 157 369 172 352 q 188 336 214 336 q 268 336 289 404 q 297 434 303 479 z"}," ":{"x_min":0,"x_max":194,"ha":194,"o":""},"I":{"x_min":0,"x_max":213,"ha":213,"o":"m 42 10 l 125 690 q 126 694 129 697 q 132 700 136 700 l 210 700 q 219 700 219 690 l 135 10 q 133 0 124 0 l 50 0 q 46 0 44 3 q 41 6 42 10 z"},"H":{"x_min":0,"x_max":461,"ha":461,"o":"m 384 700 l 457 700 q 462 700 464 697 q 467 694 466 690 l 382 10 q 382 6 379 3 q 376 0 372 0 l 298 0 q 289 0 289 10 l 326 305 q 326 309 322 309 l 176 309 q 173 309 171 305 l 135 10 q 133 0 124 0 l 50 0 q 46 0 44 3 q 41 6 42 10 l 125 690 q 126 694 129 697 q 132 700 136 700 l 210 700 q 219 700 219 690 l 182 396 q 182 392 186 392 l 332 392 q 335 392 337 396 l 373 690 q 375 700 384 700 z"},"4":{"x_min":0,"x_max":426,"ha":426,"o":"m 421 263 l 413 196 q 411 186 402 186 l 371 186 q 367 186 367 182 l 346 10 q 345 6 342 3 q 339 0 335 0 l 261 0 q 252 0 252 10 l 274 182 q 274 186 270 186 l 32 186 q 27 186 24 189 q 22 192 23 196 l 30 252 q 30 256 31 259 q 32 262 33 264 l 226 692 q 229 700 238 700 l 318 700 q 329 700 324 689 l 142 278 q 141 276 142 274 q 143 273 145 273 l 281 273 q 285 273 285 277 l 302 414 q 304 424 313 424 l 387 424 q 397 424 395 414 l 378 277 q 378 273 382 273 l 413 273 q 423 273 421 263 z"},"~":{"x_min":0,"x_max":457,"ha":457,"o":"m 237 253 q 232 256 219 264 q 206 272 194 276 q 183 280 171 280 q 129 280 99 241 q 94 231 85 237 l 49 262 q 41 267 46 276 q 66 315 100 340 q 134 364 174 364 q 197 364 214 358 q 230 351 248 338 q 272 321 288 313 q 305 305 326 305 q 344 305 358 315 q 372 325 388 344 q 394 352 402 347 l 441 320 q 448 315 443 309 l 441 305 q 384 221 320 221 q 295 221 278 229 q 260 237 237 253 z"},"D":{"x_min":0,"x_max":455,"ha":455,"o":"m 42 10 l 125 690 q 126 694 129 697 q 132 700 136 700 l 295 700 q 368 700 409 658 q 450 616 450 543 q 450 533 448 511 l 408 189 q 398 102 344 51 q 290 0 210 0 l 50 0 q 46 0 44 3 q 41 6 42 10 z m 148 83 l 219 84 q 256 84 282 114 q 308 143 315 194 l 353 506 q 354 514 354 529 q 354 571 336 594 q 318 617 284 617 l 213 617 q 212 617 210 616 q 209 615 209 613 l 145 87 q 144 86 145 84 q 146 83 148 83 z"},"^":{"x_min":0,"x_max":393,"ha":393,"o":"m 51 315 l 219 692 q 220 696 224 698 q 228 700 231 700 l 294 700 q 297 700 300 698 q 303 696 304 692 l 381 315 l 381 313 q 381 304 372 304 l 312 304 q 304 304 301 312 l 253 590 q 252 592 250 592 q 248 592 247 590 l 129 312 q 126 304 117 304 l 58 304 q 46 304 51 315 z"},"0":{"x_min":0,"x_max":434,"ha":434,"o":"m 43 145 q 43 155 45 177 l 87 523 q 97 608 151 659 q 205 710 284 710 q 355 710 396 668 q 438 625 438 554 q 438 545 436 523 l 393 177 q 383 92 328 41 q 274 -10 196 -10 q 125 -10 84 32 q 43 74 43 145 z m 299 171 l 343 529 q 344 536 344 548 q 344 584 325 606 q 306 627 274 627 q 238 627 212 600 q 187 573 181 529 l 137 171 q 136 165 136 154 q 136 117 155 95 q 174 73 206 73 q 243 73 268 100 q 294 127 299 171 z"},"F":{"x_min":0,"x_max":398,"ha":398,"o":"m 431 617 l 213 617 q 212 617 210 616 q 209 615 209 613 l 182 396 q 182 392 186 392 l 319 392 q 329 392 327 382 l 319 319 q 319 315 316 312 q 313 309 309 309 l 176 309 q 173 309 171 305 l 135 10 q 133 0 124 0 l 50 0 q 46 0 44 3 q 41 6 42 10 l 125 690 q 126 694 129 697 q 132 700 136 700 l 441 700 q 451 700 449 690 l 442 627 q 440 617 431 617 z"},"`":{"x_min":0,"x_max":189,"ha":189,"o":""},"k":{"x_min":0,"x_max":408,"ha":408,"o":"m 32 10 l 116 690 q 116 694 119 697 q 122 700 127 700 l 200 700 q 205 700 208 697 q 210 694 209 690 l 162 311 q 162 308 164 307 q 166 306 167 309 l 316 503 q 321 509 328 509 l 404 509 q 410 509 412 506 q 413 502 409 497 l 291 345 q 288 342 289 339 l 365 11 l 365 9 q 365 0 356 0 l 279 0 q 276 0 273 2 q 270 4 269 8 l 222 259 q 221 265 216 260 l 147 173 q 145 171 145 168 l 125 10 q 125 6 122 3 q 119 0 114 0 l 41 0 q 32 0 32 10 z"},"u":{"x_min":0,"x_max":419,"ha":419,"o":"m 327 509 l 401 509 q 411 509 409 499 l 349 10 q 349 6 346 3 q 343 0 339 0 l 265 0 q 256 0 256 10 l 260 39 q 260 42 258 42 q 257 42 256 40 q 221 -7 156 -7 q 104 -7 73 22 q 42 52 42 112 q 42 121 44 141 l 88 499 q 89 503 92 506 q 95 509 99 509 l 173 509 q 182 509 182 499 l 140 162 q 139 154 139 141 q 139 76 196 76 q 228 76 250 100 q 271 125 276 168 l 316 499 q 318 509 327 509 z"},"]":{"x_min":0,"x_max":308,"ha":308,"o":"m 237 -130 l 67 -130 q 63 -130 60 -127 q 58 -124 59 -120 l 67 -57 q 67 -53 70 -50 q 73 -47 78 -47 l 160 -47 q 164 -47 164 -43 l 255 696 q 255 700 252 700 l 170 700 q 166 700 164 703 q 161 706 162 710 l 170 774 q 170 778 173 781 q 176 784 181 784 l 349 784 q 354 784 356 781 q 359 778 358 774 l 248 -120 q 246 -130 237 -130 z"},"U":{"x_min":0,"x_max":463,"ha":463,"o":"m 57 157 q 57 168 59 190 l 121 690 q 121 694 124 697 q 127 700 132 700 l 205 700 q 214 700 214 690 l 151 180 q 150 173 150 160 q 150 121 169 98 q 188 75 221 75 q 258 75 284 104 q 311 133 317 180 l 380 690 q 380 694 383 697 q 386 700 391 700 l 464 700 q 473 700 473 690 l 411 190 q 401 101 346 46 q 290 -8 210 -8 q 139 -8 98 37 q 57 82 57 157 z"},"o":{"x_min":0,"x_max":412,"ha":412,"o":"m 39 126 q 39 133 41 151 l 66 358 q 75 429 125 473 q 175 517 250 517 q 319 517 358 480 q 397 444 397 383 q 397 376 395 358 l 370 151 q 361 79 311 36 q 261 -8 185 -8 q 116 -8 78 28 q 39 64 39 126 z m 277 158 l 301 352 q 302 357 302 365 q 302 396 285 415 q 268 434 240 434 q 209 434 186 411 q 164 388 159 352 l 135 158 q 134 153 134 144 q 134 113 151 94 q 168 76 196 76 q 227 76 250 99 q 273 122 277 158 z"},"N":{"x_min":0,"x_max":486,"ha":486,"o":"m 410 700 l 483 700 q 487 700 490 697 q 492 694 491 690 l 408 10 q 406 0 397 0 l 313 0 q 305 0 304 8 l 195 465 q 194 467 192 466 q 190 466 190 464 l 135 10 q 133 0 124 0 l 50 0 q 46 0 44 3 q 41 6 42 10 l 125 690 q 126 694 129 697 q 132 700 136 700 l 219 700 q 226 700 229 692 l 338 235 q 339 232 341 232 q 343 233 343 236 l 399 690 q 401 700 410 700 z"},"+":{"x_min":0,"x_max":427,"ha":427,"o":"m 421 343 l 415 289 q 413 279 404 279 l 268 279 q 264 279 264 275 l 246 135 q 246 131 243 128 q 240 125 236 125 l 183 125 q 173 125 175 135 l 192 275 q 192 279 188 279 l 53 279 q 48 279 46 282 q 43 285 44 289 l 51 343 q 53 353 62 353 l 198 353 q 202 353 202 357 l 219 497 q 221 507 230 507 l 282 507 q 287 507 290 504 q 292 501 291 497 l 274 357 q 273 356 274 354 q 275 353 277 353 l 413 353 q 423 353 421 343 z"},"G":{"x_min":0,"x_max":443,"ha":443,"o":"m 46 139 q 46 149 48 167 l 93 533 q 103 612 156 660 q 210 708 289 708 q 360 708 402 668 q 445 628 445 559 q 445 550 443 532 l 437 490 q 437 486 434 483 q 431 480 427 480 l 353 480 q 344 480 344 490 l 350 534 q 351 539 351 550 q 351 584 332 604 q 312 625 279 625 q 242 625 216 600 q 190 575 185 534 l 140 166 q 139 160 139 150 q 139 115 158 95 q 177 75 211 75 q 248 75 274 100 q 300 125 305 166 l 318 276 q 318 280 315 280 l 241 280 q 231 280 233 290 l 240 352 q 242 362 251 362 l 412 362 q 421 362 421 352 l 398 167 q 388 88 334 40 q 280 -8 201 -8 q 129 -8 88 32 q 46 71 46 139 z"},"q":{"x_min":0,"x_max":422,"ha":422,"o":"m 326 509 l 400 509 q 409 509 409 499 l 325 -181 q 323 -191 314 -191 l 240 -191 q 236 -191 234 -188 q 231 -185 232 -181 l 257 26 q 258 28 256 29 q 255 30 253 28 q 232 10 208 1 q 183 -8 160 -8 q 104 -8 72 26 q 39 60 39 121 q 39 131 41 151 l 66 359 q 75 430 118 474 q 160 517 224 517 q 247 517 270 508 q 292 499 308 481 q 310 479 312 480 q 313 481 313 483 l 315 499 q 316 503 319 506 q 322 509 326 509 z m 272 142 l 299 367 q 299 397 282 416 q 266 434 239 434 q 208 434 186 411 q 163 388 158 352 l 134 157 q 133 152 133 143 q 133 113 150 94 q 166 75 194 75 q 222 75 243 94 q 264 112 272 142 z"},"d":{"x_min":0,"x_max":418,"ha":418,"o":"m 350 700 l 424 700 q 428 700 430 697 q 433 694 432 690 l 348 10 q 348 6 345 3 q 342 0 338 0 l 264 0 q 255 0 255 10 l 257 26 q 258 28 256 29 q 255 30 253 28 q 232 10 208 1 q 183 -8 160 -8 q 103 -8 71 27 q 39 62 39 121 q 39 130 41 150 l 66 358 q 75 432 118 474 q 161 517 224 517 q 247 517 270 508 q 292 499 308 481 q 310 479 312 480 q 313 481 313 483 l 339 690 q 341 700 350 700 z m 272 142 l 299 367 q 299 397 282 416 q 266 434 239 434 q 208 434 186 411 q 163 388 158 352 l 134 157 q 133 152 133 143 q 133 113 150 94 q 166 75 194 75 q 222 75 243 94 q 264 112 272 142 z"},"1":{"x_min":0,"x_max":258,"ha":258,"o":"m 188 700 l 265 700 q 270 700 272 697 q 275 694 274 690 l 190 10 q 190 6 187 3 q 184 0 179 0 l 106 0 q 97 0 97 10 l 169 595 q 169 601 166 599 l 77 576 l 73 575 q 66 575 66 584 l 69 640 q 69 648 77 652 l 176 697 q 182 700 188 700 z"},"5":{"x_min":0,"x_max":407,"ha":407,"o":"m 387 274 q 387 243 383 215 q 379 177 369 139 q 353 68 306 30 q 259 -8 189 -8 q 121 -8 84 29 q 47 66 45 139 l 46 169 q 48 179 57 179 l 131 179 q 140 179 140 169 l 139 147 q 143 75 199 75 q 227 75 246 93 q 266 111 276 145 q 286 177 290 215 q 293 241 293 262 q 293 281 292 289 q 289 319 274 335 q 259 351 233 351 q 177 351 155 294 q 152 285 144 285 l 69 285 q 60 285 60 295 l 109 690 q 111 700 120 700 l 420 700 q 424 700 426 697 q 429 694 428 690 l 420 627 q 420 623 417 620 q 414 617 409 617 l 197 617 q 193 617 193 613 l 166 393 q 165 391 166 390 q 168 390 170 392 q 188 412 214 424 q 240 435 270 435 q 325 435 355 400 q 385 364 386 299 q 387 291 387 274 z"}}}
